<?xml version="1.0" encoding="utf-8"?>
<!-- Generator: Adobe Illustrator 18.1.1, SVG Export Plug-In . SVG Version: 6.00 Build 0)  -->
<svg version="1.1" id="Calque_1" xmlns="http://www.w3.org/2000/svg" xmlns:xlink="http://www.w3.org/1999/xlink" x="0px" y="0px"
	 viewBox="0 0 139.2 139.8" enable-background="new 0 0 139.2 139.8" xml:space="preserve">
<g>
	<path fill="#221C18" d="M96,37.4c-0.5,0-1.1-0.2-1.5-0.6L75.6,17.5C74,15.9,71.9,15,69.6,15s-4.5,0.9-6.1,2.5L44.7,36.3
		c-0.8,0.8-2.1,0.8-2.9,0c-0.8-0.8-0.8-2.1,0-2.9l18.8-18.8c2.4-2.4,5.6-3.7,9-3.7s6.6,1.3,9,3.7l18.9,19.3c0.8,0.8,0.8,2.1,0,2.9
		C97,37.2,96.5,37.4,96,37.4z"/>
</g>
<g>
	<path fill="#221C18" d="M69.6,127.1c-3.4,0-6.6-1.3-9-3.7L15.2,78c-2.4-2.4-3.7-5.6-3.7-9c0-3.4,1.3-6.6,3.7-9l18.4-18.4
		c0.8-0.8,2.1-0.8,2.9,0c0.8,0.8,0.8,2.1,0,2.9L18.1,62.9c-1.6,1.6-2.5,3.8-2.5,6.1c0,2.3,0.9,4.5,2.5,6.1l45.4,45.4
		c3.3,3.2,8.9,3.2,12.2,0l45.4-45.4c1.6-1.6,2.5-3.8,2.5-6.1c0-2.3-0.9-4.5-2.5-6.1l-18.2-18.2c-0.8-0.8-0.8-2.1,0-2.9
		c0.8-0.8,2.1-0.8,2.9,0L124,60c2.4,2.4,3.7,5.6,3.7,9c0,3.4-1.3,6.6-3.7,9l-45.4,45.4C76.2,125.8,73,127.1,69.6,127.1z"/>
</g>
<g>
	<g>
		<path fill="#221C18" d="M71.9,100.6c-17.8,0-32.3-14.5-32.3-32.3c0-6.3,1.8-12.4,5.2-17.6c0.6-0.9,1.9-1.2,2.8-0.6
			c0.9,0.6,1.2,1.9,0.6,2.8c-3,4.6-4.6,9.9-4.6,15.4c0,15.6,12.7,28.2,28.2,28.2c7.8,0,15.4-3.3,20.7-9.1c0.8-0.8,2-0.9,2.9-0.1
			c0.8,0.8,0.9,2,0.1,2.9C89.6,96.8,80.9,100.6,71.9,100.6z"/>
	</g>
	<g>
		<path fill="#221C18" d="M71.9,92.6c-13.4,0-24.3-10.9-24.3-24.3C47.7,54.9,58.6,44,71.9,44c4.4,0,8.7,1.2,12.4,3.4
			c1,0.6,1.3,1.8,0.7,2.8c-0.6,1-1.8,1.3-2.8,0.7c-3.1-1.9-6.7-2.9-10.4-2.9c-11.2,0-20.2,9.1-20.2,20.2c0,11.2,9.1,20.2,20.2,20.2
			c5.6,0,11.1-2.4,14.9-6.5c0.8-0.8,2-0.9,2.9-0.1c0.8,0.8,0.9,2,0.1,2.9C85.2,89.8,78.7,92.6,71.9,92.6z"/>
	</g>
</g>
<g>
	<path fill="#221C18" d="M81.1,34.6h-23c-1.1,0-2.1-0.9-2.1-2.1s0.9-2.1,2.1-2.1h23c1.1,0,2.1,0.9,2.1,2.1S82.3,34.6,81.1,34.6z"/>
</g>
</svg>
